<svg width="38" height="38" viewBox="0 0 38 38" fill="none" xmlns="http://www.w3.org/2000/svg">
<path d="M38 19C38 8.50682 29.4932 0 19 0C8.50682 0 0 8.50682 0 19C0 29.4932 8.50682 38 19 38C29.4932 38 38 29.4932 38 19ZM1.72727 19C1.72727 9.46027 9.46027 1.72727 19 1.72727C28.5397 1.72727 36.2727 9.46027 36.2727 19C36.2727 28.5397 28.5397 36.2727 19 36.2727C9.46027 36.2727 1.72727 28.5397 1.72727 19Z" fill="#C41B18"/>
<path d="M19.7289 29.9664V19H23.3476L23.9193 15.3658H19.7289V13.5435C19.7289 12.5952 20.0398 11.6901 21.4009 11.6901H24.1214V8.06287H20.2592C17.0119 8.06287 16.1258 10.2012 16.1258 13.1652V15.364H13.8976V19H16.1258V29.9664H19.7289Z" fill="#C41B18"/>
</svg>
