<svg width="24" height="15" viewBox="0 0 24 15" fill="none" xmlns="http://www.w3.org/2000/svg">
<path d="M1.25409 0.476407C1.13715 0.474753 1.02104 0.496358 0.912521 0.539966C0.804 0.583574 0.705228 0.648316 0.621945 0.730429C0.538663 0.812542 0.472531 0.910389 0.427392 1.01828C0.382253 1.12618 0.359009 1.24196 0.359009 1.35892C0.359009 1.47588 0.382253 1.59166 0.427392 1.69956C0.472531 1.80745 0.538663 1.9053 0.621945 1.98741C0.705228 2.06952 0.804 2.13427 0.912521 2.17787C1.02104 2.22148 1.13715 2.24309 1.25409 2.24143H22.4344C22.5514 2.24309 22.6675 2.22148 22.776 2.17787C22.8845 2.13427 22.9833 2.06952 23.0666 1.98741C23.1498 1.9053 23.216 1.80745 23.2611 1.69956C23.3063 1.59166 23.3295 1.47588 23.3295 1.35892C23.3295 1.24196 23.3063 1.12618 23.2611 1.01828C23.216 0.910389 23.1498 0.812542 23.0666 0.730429C22.9833 0.648316 22.8845 0.583574 22.776 0.539966C22.6675 0.496358 22.5514 0.474753 22.4344 0.476407H1.25409ZM1.25409 6.654C1.13715 6.65235 1.02104 6.67395 0.912521 6.71756C0.804 6.76117 0.705228 6.82591 0.621945 6.90802C0.538663 6.99014 0.472531 7.08798 0.427392 7.19588C0.382253 7.30377 0.359009 7.41956 0.359009 7.53652C0.359009 7.65347 0.382253 7.76926 0.427392 7.87715C0.472531 7.98505 0.538663 8.08289 0.621945 8.16501C0.705228 8.24712 0.804 8.31186 0.912521 8.35547C1.02104 8.39908 1.13715 8.42068 1.25409 8.41903H22.4344C22.5514 8.42068 22.6675 8.39908 22.776 8.35547C22.8845 8.31186 22.9833 8.24712 23.0666 8.16501C23.1498 8.08289 23.216 7.98505 23.2611 7.87715C23.3063 7.76926 23.3295 7.65347 23.3295 7.53652C23.3295 7.41956 23.3063 7.30377 23.2611 7.19588C23.216 7.08798 23.1498 6.99014 23.0666 6.90802C22.9833 6.82591 22.8845 6.76117 22.776 6.71756C22.6675 6.67395 22.5514 6.65235 22.4344 6.654H1.25409ZM1.25409 12.8316C1.13715 12.8299 1.02104 12.8515 0.912521 12.8952C0.804 12.9388 0.705228 13.0035 0.621945 13.0856C0.538663 13.1677 0.472531 13.2656 0.427392 13.3735C0.382253 13.4814 0.359009 13.5972 0.359009 13.7141C0.359009 13.8311 0.382253 13.9469 0.427392 14.0547C0.472531 14.1626 0.538663 14.2605 0.621945 14.3426C0.705228 14.4247 0.804 14.4895 0.912521 14.5331C1.02104 14.5767 1.13715 14.5983 1.25409 14.5966H22.4344C22.5514 14.5983 22.6675 14.5767 22.776 14.5331C22.8845 14.4895 22.9833 14.4247 23.0666 14.3426C23.1498 14.2605 23.216 14.1626 23.2611 14.0547C23.3063 13.9469 23.3295 13.8311 23.3295 13.7141C23.3295 13.5972 23.3063 13.4814 23.2611 13.3735C23.216 13.2656 23.1498 13.1677 23.0666 13.0856C22.9833 13.0035 22.8845 12.9388 22.776 12.8952C22.6675 12.8515 22.5514 12.8299 22.4344 12.8316H1.25409Z" fill="#FFFFFE"/>
</svg>
