<svg width="34" height="34" viewBox="0 0 34 34" fill="none" xmlns="http://www.w3.org/2000/svg">
<path d="M1.84763 10.4706C1.92168 8.85247 2.17505 7.80885 2.5177 6.92299L2.52231 6.91075C2.86185 6.0093 3.39377 5.19268 4.08103 4.5177L4.09068 4.50823L4.10014 4.49859C4.77567 3.81044 5.59259 3.27904 6.49326 2.9404L6.50879 2.93446C7.39264 2.59074 8.43422 2.33831 10.0537 2.26427M1.84763 10.4706C1.76978 12.1996 1.74994 12.7355 1.74994 17.2183C1.74994 21.702 1.76869 22.2366 1.84758 23.966M1.84763 10.4706V10.9068M2.52371 27.5266C2.86236 28.4272 3.39376 29.244 4.0819 29.9196L4.09153 29.9291L4.10098 29.9386C4.77599 30.6259 5.59264 31.1579 6.4941 31.4974L6.50755 31.5025C7.39221 31.8456 8.4343 32.0981 10.0537 32.1722M2.52371 27.5266L2.51778 27.5109C2.17405 26.6271 1.92162 25.5856 1.84758 23.966M2.52371 27.5266L2.50342 27.4195M1.84758 23.966L1.8741 24.1056M1.84758 23.966V23.5288M2.50342 27.4195L1.8741 24.1056M2.50342 27.4195C2.23613 26.7135 1.96092 25.7282 1.8741 24.1056M2.50342 27.4195C2.51279 27.4444 2.52215 27.4688 2.5315 27.4928C2.87045 28.4066 3.4075 29.234 4.10407 29.9155C4.78536 30.612 5.61243 31.1489 6.52589 31.4879C7.25894 31.7734 8.29188 32.0718 10.0535 32.1526C11.8312 32.2335 12.3805 32.25 16.8015 32.25C21.2226 32.25 21.7723 32.2335 23.5501 32.1526C25.3138 32.0717 26.3455 31.7716 27.076 31.4884C27.9899 31.1495 28.8175 30.6123 29.499 29.9155C30.1954 29.2342 30.7323 28.4072 31.0713 27.4938C31.3567 26.7607 31.6552 25.7279 31.7358 23.9663C31.8167 22.1885 31.8333 21.6381 31.8333 17.2183C31.8333 12.7983 31.8167 12.2475 31.7358 10.4697C31.6546 8.69672 31.3518 7.66345 31.0671 6.93233C30.6951 5.97172 30.2232 5.24521 29.4979 4.51989C28.774 3.79744 28.0495 3.32529 27.0881 2.95281C26.3544 2.66596 25.3204 2.36503 23.5501 2.28389C23.3961 2.27689 23.2513 2.27037 23.1125 2.26429M1.8741 24.1056C1.87165 24.0599 1.86935 24.0136 1.8672 23.9668C1.8602 23.8127 1.85366 23.6678 1.84758 23.5288M10.0537 2.26427C11.7831 2.18537 12.3188 2.16663 16.8015 2.16663C21.2842 2.16663 21.8197 2.18645 23.5485 2.26429M10.0537 2.26427H10.491M23.5485 2.26429H23.1125M23.5485 2.26429C25.167 2.33832 26.2107 2.59166 27.0968 2.93434L27.109 2.93899C28.0104 3.27854 28.827 3.81046 29.502 4.49772L29.5114 4.50727L29.521 4.51664C30.2083 5.19166 30.7402 6.00852 31.0795 6.91023L31.0852 6.92548C31.4289 7.80933 31.6815 8.85091 31.7554 10.4704M10.491 2.26427L23.1125 2.26429M10.491 2.26427C11.9553 2.20024 12.7647 2.18647 16.8015 2.18647C20.8387 2.18647 21.6479 2.20026 23.1125 2.26429M10.491 2.26427C10.352 2.27035 10.2071 2.27689 10.053 2.28389C8.28922 2.36473 7.2575 2.66481 6.52703 2.94813C5.60963 3.28821 4.77935 3.82811 4.09636 4.52874C3.37781 5.25026 2.90748 5.97331 2.53619 6.93151C2.24931 7.66523 1.94833 8.69968 1.86718 10.4702C1.8602 10.6238 1.85368 10.7682 1.84763 10.9068M31.7554 23.966C31.6815 25.5854 31.4289 26.6275 31.0858 27.5122L31.0808 27.5256C30.7411 28.4272 30.2093 29.2437 29.522 29.9187L29.5123 29.9282L29.503 29.9378C28.8274 30.6259 28.0105 31.1573 27.1098 31.496L27.0942 31.502C26.2104 31.8457 25.1688 32.0981 23.5493 32.1722M1.84758 23.5288C1.78355 22.0644 1.76978 21.255 1.76978 17.2183C1.76978 13.1802 1.78355 12.3719 1.84763 10.9068M1.84758 23.5288L1.84763 10.9068M14.1245 23.6811C14.9732 24.0326 15.8828 24.2136 16.8015 24.2136C18.6568 24.2136 20.4362 23.4766 21.7481 22.1648C23.0599 20.8528 23.797 19.0735 23.797 17.2183C23.797 15.3629 23.0599 13.5836 21.7481 12.2717C20.4362 10.9598 18.6568 10.2228 16.8015 10.2228C15.8828 10.2228 14.9732 10.4037 14.1245 10.7553C13.2757 11.1068 12.5046 11.6221 11.855 12.2717C11.2054 12.9213 10.6902 13.6925 10.3386 14.5412C9.98706 15.3898 9.80611 16.2996 9.80611 17.2183C9.80611 18.1369 9.98706 19.0465 10.3386 19.8952C10.6902 20.744 11.2054 21.5151 11.855 22.1648C12.5046 22.8142 13.2757 23.3296 14.1245 23.6811ZM11.8394 12.2561C13.1555 10.9401 14.9404 10.2007 16.8015 10.2007C18.6627 10.2007 20.4476 10.9401 21.7636 12.2561C23.0797 13.5722 23.819 15.3571 23.819 17.2183C23.819 19.0793 23.0797 20.8642 21.7636 22.1803C20.4476 23.4963 18.6627 24.2356 16.8015 24.2356C14.9404 24.2356 13.1555 23.4963 11.8394 22.1803C10.5234 20.8642 9.78407 19.0793 9.78407 17.2183C9.78407 15.3571 10.5234 13.5722 11.8394 12.2561ZM27.7705 8.56692C27.7705 9.09962 27.5588 9.61049 27.1823 9.98717C26.8056 10.3638 26.2947 10.5755 25.762 10.5755C25.2292 10.5755 24.7185 10.3638 24.3418 9.98717C23.9651 9.61049 23.7534 9.09962 23.7534 8.56692C23.7534 8.03422 23.9651 7.52334 24.3418 7.14668C24.7185 6.77001 25.2292 6.5584 25.762 6.5584C26.2947 6.5584 26.8056 6.77001 27.1823 7.14668C27.5588 7.52334 27.7705 8.03422 27.7705 8.56692Z" stroke="#C41B18" stroke-width="2.66667" stroke-linejoin="round"/>
</svg>
